<?xml version="1.0" encoding="UTF-8" standalone="no"?>
<!DOCTYPE svg PUBLIC "-//W3C//DTD SVG 1.1//EN" "http://www.w3.org/Graphics/SVG/1.1/DTD/svg11.dtd">
<svg width="100%" height="100%" viewBox="0 0 160 110" version="1.1" xmlns="http://www.w3.org/2000/svg" xmlns:xlink="http://www.w3.org/1999/xlink" xml:space="preserve" xmlns:serif="http://www.serif.com/" style="fill-rule:evenodd;clip-rule:evenodd;stroke-linejoin:round;stroke-miterlimit:2;">
    <g transform="matrix(1.357562,0,0,1.357562,84.892456,68.637356)">
        <path d="M0,-19.888C2.65,-21.245 5.106,-23.998 7.172,-25.788C16.464,-33.839 25.44,-39.236 37.444,-43.182C39.205,-43.762 41.281,-44.155 42.8,-43.092C43.915,-42.311 44.432,-40.934 44.757,-39.612C46.375,-33.033 44.712,-26.014 41.731,-19.93C39.271,-14.906 35.957,-10.376 32.703,-5.849C29.491,-1.379 26.883,3.416 24.059,8.138C20.336,14.362 15.776,19.141 8.85,21.652C2.127,24.089 -5.367,24.267 -12.262,22.45C-22.025,19.877 -30.476,9.851 -36.877,2.044C-43.279,-5.763 -47.687,-15.033 -51.017,-24.564C-52.556,-28.97 -53.728,-34.322 -50.765,-37.926C-49.191,-39.841 -46.727,-40.816 -44.285,-41.247C-39.586,-42.075 -34.603,-41.084 -30.549,-38.577C-27.517,-36.703 -24.4,-34.904 -21.697,-32.56C-18.814,-30.061 -16.893,-26.695 -14.029,-24.177C-11.831,-22.245 -9.192,-20.868 -6.481,-19.806C-5.044,-19.243 -3.471,-18.881 -1.956,-19.182C-1.295,-19.313 -0.642,-19.559 0,-19.888" style="fill:rgb(176,46,59);fill-rule:nonzero;"/>
    </g>
    <g transform="matrix(0.905736,0,0,0.905736,0.953567,28.833954)">
        <path d="M74.626,61.889L74.626,54.889C77.126,53.556 79.301,52.223 81.151,50.889C83.001,49.556 84.534,48.248 85.751,46.964C86.967,45.681 87.876,44.464 88.476,43.314C89.076,42.164 89.376,41.106 89.376,40.139C89.376,39.339 89.176,38.639 88.776,38.039C88.376,37.439 87.676,37.139 86.676,37.139C85.542,37.139 84.709,37.606 84.176,38.539C83.642,39.473 83.409,40.956 83.476,42.989L73.526,40.589C73.459,37.789 74.042,35.489 75.276,33.689C76.509,31.889 78.201,30.556 80.351,29.689C82.501,28.823 84.876,28.389 87.476,28.389C89.976,28.389 92.084,28.731 93.801,29.414C95.517,30.098 96.892,30.981 97.926,32.064C98.959,33.148 99.701,34.314 100.151,35.564C100.601,36.814 100.826,38.006 100.826,39.139C100.826,41.339 100.251,43.323 99.101,45.089C97.951,46.856 96.409,48.439 94.476,49.839C92.542,51.239 90.392,52.506 88.026,53.639L88.026,53.739C88.726,53.673 89.501,53.614 90.351,53.564C91.201,53.514 92.101,53.481 93.051,53.464C94.001,53.448 94.942,53.439 95.876,53.439L101.026,53.439L101.026,61.889L74.626,61.889Z" style="fill:white;fill-rule:nonzero;"/>
    </g>
</svg>
